<?xml version="1.0" encoding="iso-8859-1"?>
<!-- Generator: Adobe Illustrator 19.0.0, SVG Export Plug-In . SVG Version: 6.00 Build 0)  -->
<svg version="1.1" id="Layer_1" xmlns="http://www.w3.org/2000/svg" xmlns:xlink="http://www.w3.org/1999/xlink" x="0px" y="0px"
	 viewBox="0 0 512 512" style="enable-background:new 0 0 512 512;" xml:space="preserve">
<g>
	<g>
		<path d="M392.294,275.11H383.5c-6.622,0-11.991,5.368-11.991,11.991s5.368,11.991,11.991,11.991h8.794
			c6.622,0,11.991-5.368,11.991-11.991S398.916,275.11,392.294,275.11z"/>
	</g>
</g>
<g>
	<g>
		<path d="M500.009,275.11h-20.331c0.061-1.939,0.102-3.879,0.102-5.815v-32.171c0-6.622-5.368-11.991-11.991-11.991H188.58
			L115.375,83.757c-5.154-9.959-13.874-17.316-24.554-20.714c-10.682-3.399-22.051-2.433-31.998,2.721
			c-13.998,7.235-22.695,21.526-22.695,37.293c0,6.649,1.624,13.308,4.698,19.262l53.18,102.815H44.209
			c-6.622,0-11.991,5.368-11.991,11.991v32.171c0,1.936,0.041,3.877,0.102,5.815h-20.33C5.368,275.11,0,280.479,0,287.101
			s5.368,11.991,11.991,11.991h22.674c6.651,40.256,26.716,77.154,57.24,104.825c33.46,30.331,76.776,47.037,121.972,47.037h84.246
			c45.195,0,88.512-16.704,121.972-47.037c30.523-27.671,50.589-64.57,57.24-104.825h22.674c6.622,0,11.991-5.368,11.991-11.991
			C512,280.479,506.632,275.11,500.009,275.11z M62.129,111.309c-1.341-2.597-2.02-5.374-2.02-8.252
			c0-6.763,3.727-12.89,9.735-15.995c4.264-2.207,9.128-2.622,13.705-1.167c4.577,1.457,8.317,4.612,10.528,8.887l67.498,130.353
			h-40.57L62.129,111.309z M455.8,269.295c0,1.938-0.048,3.878-0.119,5.815h-13.028c-6.622,0-11.991,5.368-11.991,11.991
			s5.368,11.991,11.991,11.991h10.336c-13.991,73.773-78.361,127.88-154.866,127.88h-84.246c-76.51,0-140.89-54.102-154.878-127.88
			h277.339c6.622,0,11.991-5.368,11.991-11.991s-5.368-11.991-11.991-11.991H56.319c-0.071-1.938-0.119-3.878-0.119-5.815v-20.18
			h57.507h67.579H455.8V269.295z"/>
	</g>
</g>
<g>
</g>
<g>
</g>
<g>
</g>
<g>
</g>
<g>
</g>
<g>
</g>
<g>
</g>
<g>
</g>
<g>
</g>
<g>
</g>
<g>
</g>
<g>
</g>
<g>
</g>
<g>
</g>
<g>
</g>
</svg>
