<?xml version="1.0" encoding="iso-8859-1"?>
<!-- Generator: Adobe Illustrator 19.0.0, SVG Export Plug-In . SVG Version: 6.00 Build 0)  -->
<svg version="1.1" id="Layer_1" xmlns="http://www.w3.org/2000/svg" xmlns:xlink="http://www.w3.org/1999/xlink" x="0px" y="0px"
	 viewBox="0 0 512 512" style="enable-background:new 0 0 512 512;" xml:space="preserve">
<path style="fill:#FFF3E6;" d="M256,430.022H147.171v-89.154c-60.102,0-108.829-48.726-108.829-108.829
	s48.726-108.829,108.829-108.829c0-60.117,48.726-108.829,108.829-108.829s108.829,48.712,108.829,108.829
	c60.102,0,108.829,48.726,108.829,108.829s-48.726,108.829-108.829,108.829v89.154H256z"/>
<g>
	<rect x="256" y="430.022" style="fill:#CCC2B8;" width="108.829" height="67.596"/>
	<rect x="147.171" y="430.022" style="fill:#CCC2B8;" width="108.829" height="67.596"/>
</g>
<path d="M488.04,232.04c0-22.315-6.032-44.182-17.445-63.233c-4.082-6.814-12.914-9.026-19.728-4.947
	c-6.814,4.083-9.029,12.915-4.947,19.729c8.739,14.588,13.357,31.341,13.357,48.452c0,52.079-42.368,94.447-94.447,94.447
	c-7.943,0-14.382,6.44-14.382,14.382v74.772h-80.065v-24.349c0-7.942-6.439-14.382-14.382-14.382s-14.382,6.44-14.382,14.382v24.349
	h-80.065v-74.772c0-7.942-6.439-14.382-14.382-14.382c-52.077,0-94.447-42.368-94.447-94.447s42.368-94.447,94.447-94.447
	c7.943,0,14.382-6.44,14.382-14.382c0-52.079,42.369-94.447,94.447-94.447s94.447,42.368,94.447,94.447
	c0,7.942,6.439,14.382,14.382,14.382c9.446,0,18.767,1.388,27.706,4.125c7.591,2.323,15.638-1.946,17.963-9.54
	c2.326-7.595-1.946-15.638-9.54-17.963c-7.335-2.248-14.861-3.797-22.495-4.64C371.656,48.029,319.331,0,256,0
	S140.344,48.03,133.539,109.577C71.991,116.384,23.96,168.708,23.96,232.04c0,63.074,47.64,115.232,108.829,122.377v61.224h-15
	c-7.943,0-14.382,6.44-14.382,14.382c0,7.942,6.439,14.382,14.382,14.382h15v53.213c0,7.942,6.439,14.382,14.382,14.382H256h108.829
	c7.943,0,14.382-6.44,14.382-14.382v-53.213h15c7.943,0,14.382-6.44,14.382-14.382c0-7.942-6.439-14.382-14.382-14.382h-15v-61.224
	C440.399,347.271,488.04,295.113,488.04,232.04z M161.553,444.405h80.065v38.831h-80.065V444.405z M350.447,483.236h-80.065v-38.831
	h80.065V483.236z"/>
<path d="M423.18,157.768c0.397,0.312,0.79,0.628,1.181,0.945c2.665,2.16,5.866,3.21,9.049,3.21c4.187,0,8.337-1.819,11.181-5.324
	c5.002-6.17,4.056-15.228-2.114-20.228c-0.499-0.404-1.002-0.808-1.509-1.207c-6.243-4.911-15.285-3.834-20.195,2.408
	C415.859,143.814,416.936,152.856,423.18,157.768z"/>
<g>
</g>
<g>
</g>
<g>
</g>
<g>
</g>
<g>
</g>
<g>
</g>
<g>
</g>
<g>
</g>
<g>
</g>
<g>
</g>
<g>
</g>
<g>
</g>
<g>
</g>
<g>
</g>
<g>
</g>
</svg>
